<svg version="1.1" id="Layer_1" xmlns="http://www.w3.org/2000/svg" xmlns:xlink="http://www.w3.org/1999/xlink" x="0px" y="0px"
	 width="100%" viewBox="0 0 234 235" enable-background="new 0 0 234 235" xml:space="preserve">
<path fill="#FC7E1B" opacity="1.000000" stroke="none" 
	d="
M98.000000,1.000000 
	C143.633560,1.000000 189.267120,1.000000 234.950348,1.000000 
	C234.950348,79.243416 234.950348,157.486877 234.950348,236.000000 
	C157.979309,236.000000 80.958313,236.000000 3.467846,235.531342 
	C2.998951,214.406448 2.978554,193.750168 3.005435,173.093964 
	C3.038599,147.610382 3.111098,122.126831 3.440962,96.504608 
	C15.638830,84.668304 27.562334,72.970665 39.699581,61.063335 
	C40.186729,61.495869 41.067009,62.200626 41.859928,62.992825 
	C58.116615,79.234680 74.403908,95.446213 90.599937,111.748398 
	C105.025269,126.268280 119.499893,140.744690 133.653763,155.526566 
	C141.266586,163.477142 140.874832,173.579712 133.479675,181.823624 
	C123.762817,192.655777 110.896835,196.823288 97.095100,197.350586 
	C89.324562,197.647446 85.644279,195.993378 87.044708,185.721252 
	C87.438774,182.830795 87.702065,179.922501 88.110565,176.257812 
	C65.365158,184.880127 42.516346,186.235947 18.263426,183.250839 
	C19.321056,185.550644 19.852505,187.017288 20.626436,188.342300 
	C31.502779,206.963043 47.624508,219.350800 67.307549,227.461716 
	C76.529419,231.261841 76.541946,231.225220 80.782272,222.051880 
	C80.911697,221.771866 81.191780,221.561493 81.274704,221.465530 
	C86.112671,222.044800 90.891548,222.305435 95.538300,223.230103 
	C111.319572,226.370453 126.962952,224.491364 142.200867,220.810211 
	C161.726288,216.093292 180.909210,209.958527 200.879486,204.251862 
	C201.718369,200.701233 202.489456,195.791412 204.050858,191.147293 
	C208.214706,178.762589 212.607224,166.451324 217.111115,154.185120 
	C225.545898,131.213211 226.525055,107.536926 223.577972,83.590729 
	C223.077576,79.524696 223.531235,77.596016 227.513168,76.889114 
	C232.490005,76.005577 233.455200,73.109497 231.761139,68.676010 
	C224.423950,49.474163 213.149551,33.254559 195.975830,21.566011 
	C193.110367,19.615747 189.824295,18.283445 187.056198,16.834934 
	C187.056198,28.789120 187.756470,40.105064 186.859802,51.293026 
	C185.957901,62.546547 183.467194,73.672729 181.619659,85.185226 
	C183.795990,85.062782 186.660950,85.292343 189.330444,84.675697 
	C196.400146,83.042618 198.910690,87.776627 199.656601,92.768173 
	C201.258240,103.486153 199.259811,113.742485 193.857773,123.011223 
	C186.712799,135.270416 175.140656,140.094147 162.428543,129.413956 
	C148.979630,118.114716 136.101288,106.135048 123.006027,94.416496 
	C111.511932,84.130783 100.046135,73.813263 88.598549,63.475792 
	C79.493134,55.253368 70.434067,46.979626 61.136597,38.530716 
	C62.821274,36.757206 64.271721,35.180721 65.774673,33.656006 
	C76.510445,22.764753 87.256927,11.884056 98.000000,1.000000 
z"/>
<path fill="#050128" opacity="1.000000" stroke="none" 
	d="
M97.531342,1.000000 
	C87.256927,11.884056 76.510445,22.764753 65.774673,33.656006 
	C64.271721,35.180721 62.821274,36.757206 61.136597,38.530716 
	C70.434067,46.979626 79.493134,55.253368 88.598549,63.475792 
	C100.046135,73.813263 111.511932,84.130783 123.006027,94.416496 
	C136.101288,106.135048 148.979630,118.114716 162.428543,129.413956 
	C175.140656,140.094147 186.712799,135.270416 193.857773,123.011223 
	C199.259811,113.742485 201.258240,103.486153 199.656601,92.768173 
	C198.910690,87.776627 196.400146,83.042618 189.330444,84.675697 
	C186.660950,85.292343 183.795990,85.062782 181.619659,85.185226 
	C183.467194,73.672729 185.957901,62.546547 186.859802,51.293026 
	C187.756470,40.105064 187.056198,28.789120 187.056198,16.834934 
	C189.824295,18.283445 193.110367,19.615747 195.975830,21.566011 
	C213.149551,33.254559 224.423950,49.474163 231.761139,68.676010 
	C233.455200,73.109497 232.490005,76.005577 227.513168,76.889114 
	C223.531235,77.596016 223.077576,79.524696 223.577972,83.590729 
	C226.525055,107.536926 225.545898,131.213211 217.111115,154.185120 
	C212.607224,166.451324 208.214706,178.762589 204.050858,191.147293 
	C202.489456,195.791412 201.718369,200.701233 200.879486,204.251862 
	C180.909210,209.958527 161.726288,216.093292 142.200867,220.810211 
	C126.962952,224.491364 111.319572,226.370453 95.538300,223.230103 
	C90.891548,222.305435 86.112671,222.044800 81.274704,221.465530 
	C81.191780,221.561493 80.911697,221.771866 80.782272,222.051880 
	C76.541946,231.225220 76.529419,231.261841 67.307549,227.461716 
	C47.624508,219.350800 31.502779,206.963043 20.626436,188.342300 
	C19.852505,187.017288 19.321056,185.550644 18.263426,183.250839 
	C42.516346,186.235947 65.365158,184.880127 88.110565,176.257812 
	C87.702065,179.922501 87.438774,182.830795 87.044708,185.721252 
	C85.644279,195.993378 89.324562,197.647446 97.095100,197.350586 
	C110.896835,196.823288 123.762817,192.655777 133.479675,181.823624 
	C140.874832,173.579712 141.266586,163.477142 133.653763,155.526566 
	C119.499893,140.744690 105.025269,126.268280 90.599937,111.748398 
	C74.403908,95.446213 58.116615,79.234680 41.859928,62.992825 
	C41.067009,62.200626 40.186729,61.495869 39.699581,61.063335 
	C27.562334,72.970665 15.638830,84.668304 3.377056,96.066681 
	C3.082292,86.064262 3.125797,76.361107 3.441539,66.521629 
	C10.476400,59.499855 17.239025,52.614395 24.999010,44.713459 
	C21.537214,43.558270 19.258493,42.204121 16.951118,42.153400 
	C12.364369,42.052586 7.761847,42.669380 3.088511,42.527405 
	C3.062657,35.043739 3.114135,28.022327 3.534378,21.158621 
	C7.057149,21.268635 10.462456,21.978230 13.317849,21.030684 
	C21.745785,18.233925 24.136879,12.192222 22.000000,1.000000 
	C29.020948,1.000000 36.041897,1.000000 43.561211,1.465950 
	C43.720413,7.187879 43.198200,12.441825 43.139771,17.700922 
	C43.118874,19.582109 44.219097,21.475754 44.626270,22.781971 
	C52.808662,15.156804 60.404331,8.078402 68.000000,1.000000 
	C77.687561,1.000000 87.375122,1.000000 97.531342,1.000000 
z"/>
<path fill="#FFFFFF" opacity="1.000000" stroke="none" 
	d="
M3.165613,21.000917 
	C3.114135,28.022327 3.062657,35.043739 3.019840,42.991322 
	C3.075435,51.497646 3.122369,59.077793 3.169302,66.657944 
	C3.125797,76.361107 3.082292,86.064262 3.102692,96.205345 
	C3.111098,122.126831 3.038599,147.610382 3.005435,173.093964 
	C2.978554,193.750168 2.998951,214.406448 2.999189,235.531342 
	C2.333333,235.835083 1.148942,235.773849 1.091472,235.486908 
	C0.867287,234.367599 1.000000,233.176788 1.000000,232.012573 
	C1.000000,156.338211 0.994890,80.663857 1.041625,4.989525 
	C1.042446,3.659487 1.666667,2.329833 2.499114,1.468431 
	C3.054023,8.291547 3.109818,14.646232 3.165613,21.000917 
z"/>
<path fill="#FC7F1B" opacity="1.000000" stroke="none" 
	d="
M3.534378,21.158621 
	C3.109818,14.646232 3.054023,8.291547 2.999114,1.468431 
	C9.021152,1.000000 15.042304,1.000000 21.531727,1.000000 
	C24.136879,12.192222 21.745785,18.233925 13.317849,21.030684 
	C10.462456,21.978230 7.057149,21.268635 3.534378,21.158621 
z"/>
<path fill="#F87C1C" opacity="1.000000" stroke="none" 
	d="
M67.531364,1.000000 
	C60.404331,8.078402 52.808662,15.156804 44.626270,22.781971 
	C44.219097,21.475754 43.118874,19.582109 43.139771,17.700922 
	C43.198200,12.441825 43.720413,7.187879 44.029793,1.465950 
	C51.687576,1.000000 59.375153,1.000000 67.531364,1.000000 
z"/>
<path fill="#F57B1C" opacity="1.000000" stroke="none" 
	d="
M3.441539,66.521629 
	C3.122369,59.077793 3.075435,51.497646 3.097172,43.453575 
	C7.761847,42.669380 12.364369,42.052586 16.951118,42.153400 
	C19.258493,42.204121 21.537214,43.558270 24.999010,44.713459 
	C17.239025,52.614395 10.476400,59.499855 3.441539,66.521629 
z"/>
</svg>